<svg width="680" height="736" viewBox="0 0 680 736" role="img" xmlns="http://www.w3.org/2000/svg" font-family="system-ui, 'Segoe UI', sans-serif">
<title>CashLens architecture</title>
<desc>Layered architecture: React client interfaces on top, an Express API boundary with role masking, then analytics engine, alert coordination flow and AI plus monitoring services, all reading a seeded SQLite store with three separated provider lanes.</desc>
<defs><marker id="arrow" viewBox="0 0 10 10" refX="8" refY="5" markerWidth="6" markerHeight="6" orient="auto-start-reverse"><path d="M2 1L8 5L2 9" fill="none" stroke="#888780" stroke-width="1.5" stroke-linecap="round" stroke-linejoin="round"/></marker></defs>
<rect x="0" y="0" width="680" height="736" fill="#ffffff"/>

<rect x="20" y="20" width="640" height="100" rx="8" fill="none" stroke="#B4B2A9" stroke-width="0.75" stroke-dasharray="4 3"/>
<text x="32" y="38" font-size="12" fill="#5F5E5A">React client — localhost:5173</text>
<rect x="32" y="48" width="146" height="56" rx="4" fill="#EEEDFE" stroke="#534AB7" stroke-width="0.75"/>
<text x="44" y="71" font-size="14" font-weight="500" fill="#3C3489">Agent view</text>
<text x="44" y="89" font-size="12" fill="#534AB7">drawer bar · what-if</text>
<rect x="190" y="48" width="146" height="56" rx="4" fill="#EEEDFE" stroke="#534AB7" stroke-width="0.75"/>
<text x="202" y="71" font-size="14" font-weight="500" fill="#3C3489">Ops + risk views</text>
<text x="202" y="89" font-size="12" fill="#534AB7">alert queue · cases</text>
<rect x="348" y="48" width="146" height="56" rx="4" fill="#EEEDFE" stroke="#534AB7" stroke-width="0.75"/>
<text x="360" y="71" font-size="14" font-weight="500" fill="#3C3489">FSP + management</text>
<text x="360" y="89" font-size="12" fill="#534AB7">aggregates only</text>
<rect x="506" y="48" width="146" height="56" rx="4" fill="#EEEDFE" stroke="#534AB7" stroke-width="0.75"/>
<text x="518" y="71" font-size="14" font-weight="500" fill="#3C3489">Guided scenarios</text>
<text x="518" y="89" font-size="12" fill="#534AB7">A–D · live feed</text>

<line x1="340" y1="120" x2="340" y2="148" stroke="#888780" stroke-width="1.5" marker-end="url(#arrow)"/>

<rect x="20" y="150" width="640" height="48" rx="4" fill="#F1EFE8" stroke="#5F5E5A" stroke-width="0.75"/>
<text x="340" y="170" font-size="14" font-weight="500" fill="#444441" text-anchor="middle">Express API — role-scoped routes with server-side masking</text>
<text x="340" y="188" font-size="12" fill="#5F5E5A" text-anchor="middle">every request carries a role; responses are masked to that authority</text>

<line x1="125" y1="198" x2="125" y2="228" stroke="#888780" stroke-width="1.5" marker-end="url(#arrow)"/>
<line x1="340" y1="198" x2="340" y2="228" stroke="#888780" stroke-width="1.5" marker-end="url(#arrow)"/>
<line x1="555" y1="230" x2="555" y2="200" stroke="#888780" stroke-width="1.5" marker-end="url(#arrow)"/>

<rect x="20" y="230" width="210" height="208" rx="8" fill="none" stroke="#B4B2A9" stroke-width="0.75" stroke-dasharray="4 3"/>
<text x="32" y="246" font-size="12" fill="#5F5E5A">Analytics engine</text>
<rect x="32" y="252" width="186" height="52" rx="4" fill="#E1F5EE" stroke="#0F6E56" stroke-width="0.75"/>
<text x="44" y="274" font-size="14" font-weight="500" fill="#085041">EWRH liquidity scorer</text>
<text x="44" y="292" font-size="12" fill="#0F6E56">burn rate · shortage ETA</text>
<rect x="32" y="312" width="186" height="52" rx="4" fill="#E1F5EE" stroke="#0F6E56" stroke-width="0.75"/>
<text x="44" y="334" font-size="14" font-weight="500" fill="#085041">Anomaly detectors</text>
<text x="44" y="352" font-size="12" fill="#0F6E56">3σ z-score · odd hours</text>
<rect x="32" y="372" width="186" height="52" rx="4" fill="#E1F5EE" stroke="#0F6E56" stroke-width="0.75"/>
<text x="44" y="394" font-size="14" font-weight="500" fill="#085041">Data-state assessor</text>
<text x="44" y="412" font-size="12" fill="#0F6E56">flags degraded feeds</text>

<rect x="250" y="230" width="180" height="290" rx="8" fill="none" stroke="#B4B2A9" stroke-width="0.75" stroke-dasharray="4 3"/>
<text x="262" y="246" font-size="12" fill="#5F5E5A">Alert coordination flow</text>
<rect x="266" y="254" width="148" height="46" rx="4" fill="#F1EFE8" stroke="#5F5E5A" stroke-width="0.75"/>
<text x="278" y="273" font-size="14" font-weight="500" fill="#444441">New</text>
<text x="278" y="291" font-size="12" fill="#5F5E5A">ops receives + owns</text>
<line x1="340" y1="300" x2="340" y2="320" stroke="#888780" stroke-width="1.5" marker-end="url(#arrow)"/>
<rect x="266" y="322" width="148" height="46" rx="4" fill="#F1EFE8" stroke="#5F5E5A" stroke-width="0.75"/>
<text x="278" y="341" font-size="14" font-weight="500" fill="#444441">Acknowledged</text>
<text x="278" y="359" font-size="12" fill="#5F5E5A">note in audit trail</text>
<line x1="340" y1="368" x2="340" y2="388" stroke="#888780" stroke-width="1.5" marker-end="url(#arrow)"/>
<rect x="266" y="390" width="148" height="46" rx="4" fill="#F1EFE8" stroke="#5F5E5A" stroke-width="0.75"/>
<text x="278" y="409" font-size="14" font-weight="500" fill="#444441">Escalated</text>
<text x="278" y="427" font-size="12" fill="#5F5E5A">risk analyst owns</text>
<line x1="340" y1="436" x2="340" y2="456" stroke="#888780" stroke-width="1.5" marker-end="url(#arrow)"/>
<rect x="266" y="458" width="148" height="46" rx="4" fill="#F1EFE8" stroke="#5F5E5A" stroke-width="0.75"/>
<text x="278" y="477" font-size="14" font-weight="500" fill="#444441">Resolved</text>
<text x="278" y="495" font-size="12" fill="#5F5E5A">disposition recorded</text>

<path d="M230 338 L248 338 L248 277 L262 277" fill="none" stroke="#888780" stroke-width="1.5" marker-end="url(#arrow)"/>

<rect x="450" y="230" width="210" height="150" rx="8" fill="none" stroke="#B4B2A9" stroke-width="0.75" stroke-dasharray="4 3"/>
<text x="462" y="246" font-size="12" fill="#5F5E5A">AI services</text>
<rect x="462" y="252" width="186" height="48" rx="4" fill="#E1F5EE" stroke="#0F6E56" stroke-width="0.75"/>
<text x="474" y="273" font-size="14" font-weight="500" fill="#085041">Live synthetic stream</text>
<text x="474" y="291" font-size="12" fill="#0F6E56">SSE · isolated demo feed</text>
<rect x="462" y="310" width="186" height="48" rx="4" fill="#E1F5EE" stroke="#0F6E56" stroke-width="0.75"/>
<text x="474" y="331" font-size="14" font-weight="500" fill="#085041">OpenAI advisory</text>
<text x="474" y="349" font-size="12" fill="#0F6E56">optional · human review</text>

<rect x="450" y="396" width="210" height="124" rx="8" fill="none" stroke="#B4B2A9" stroke-width="0.75" stroke-dasharray="4 3"/>
<text x="462" y="412" font-size="12" fill="#5F5E5A">Monitoring</text>
<rect x="462" y="418" width="186" height="44" rx="4" fill="#F1EFE8" stroke="#5F5E5A" stroke-width="0.75"/>
<text x="474" y="437" font-size="14" font-weight="500" fill="#444441">Request telemetry</text>
<text x="474" y="455" font-size="12" fill="#5F5E5A">trace ids · p95</text>
<rect x="462" y="470" width="186" height="44" rx="4" fill="#F1EFE8" stroke="#5F5E5A" stroke-width="0.75"/>
<text x="474" y="489" font-size="14" font-weight="500" fill="#444441">Feed health</text>
<text x="474" y="507" font-size="12" fill="#5F5E5A">/health · /ready</text>

<line x1="125" y1="438" x2="125" y2="558" stroke="#888780" stroke-width="1.5" marker-end="url(#arrow)"/>
<line x1="340" y1="520" x2="340" y2="558" stroke="#888780" stroke-width="1.5" marker-end="url(#arrow)"/>
<line x1="555" y1="520" x2="555" y2="558" stroke="#B4B2A9" stroke-width="0.75" stroke-dasharray="3 3"/>

<rect x="20" y="560" width="640" height="130" rx="8" fill="none" stroke="#B4B2A9" stroke-width="0.75" stroke-dasharray="4 3"/>
<text x="32" y="576" font-size="12" fill="#5F5E5A">SQLite — synthetic data only</text>
<rect x="32" y="582" width="180" height="52" rx="4" fill="#F1EFE8" stroke="#5F5E5A" stroke-width="0.75"/>
<text x="44" y="604" font-size="14" font-weight="500" fill="#444441">Seeded tables</text>
<text x="44" y="622" font-size="12" fill="#5F5E5A">agents · alerts · notes</text>
<rect x="224" y="582" width="170" height="52" rx="4" fill="#F1EFE8" stroke="#5F5E5A" stroke-width="0.75"/>
<text x="236" y="604" font-size="14" font-weight="500" fill="#444441">Seed + injector</text>
<text x="236" y="622" font-size="12" fill="#5F5E5A">labels → metrics only</text>
<rect x="406" y="582" width="78" height="52" rx="4" fill="none" stroke="#5F5E5A" stroke-width="0.75" stroke-dasharray="3 3"/>
<text x="445" y="604" font-size="14" font-weight="500" fill="#444441" text-anchor="middle">bKash</text>
<text x="445" y="622" font-size="12" fill="#5F5E5A" text-anchor="middle">own float</text>
<rect x="492" y="582" width="78" height="52" rx="4" fill="none" stroke="#5F5E5A" stroke-width="0.75" stroke-dasharray="3 3"/>
<text x="531" y="604" font-size="14" font-weight="500" fill="#444441" text-anchor="middle">Nagad</text>
<text x="531" y="622" font-size="12" fill="#5F5E5A" text-anchor="middle">own float</text>
<rect x="578" y="582" width="78" height="52" rx="4" fill="none" stroke="#5F5E5A" stroke-width="0.75" stroke-dasharray="3 3"/>
<text x="617" y="604" font-size="14" font-weight="500" fill="#444441" text-anchor="middle">Rocket</text>
<text x="617" y="622" font-size="12" fill="#5F5E5A" text-anchor="middle">own float</text>
<text x="492" y="662" font-size="12" fill="#5F5E5A" text-anchor="middle">provider boundary — no conversion, no settlement</text>

<rect x="20" y="704" width="12" height="12" rx="2" fill="#EEEDFE" stroke="#534AB7" stroke-width="0.75"/>
<text x="38" y="714" font-size="12" fill="#5F5E5A">User interfaces</text>
<rect x="160" y="704" width="12" height="12" rx="2" fill="#E1F5EE" stroke="#0F6E56" stroke-width="0.75"/>
<text x="178" y="714" font-size="12" fill="#5F5E5A">Analytics + AI services</text>
<rect x="352" y="704" width="12" height="12" rx="2" fill="#F1EFE8" stroke="#5F5E5A" stroke-width="0.75"/>
<text x="370" y="714" font-size="12" fill="#5F5E5A">Platform + workflow</text>
</svg>
